<svg width="15.857697" height="20.197479" viewBox="0 0 15.8577 20.1975" fill="none" xmlns="http://www.w3.org/2000/svg" xmlns:xlink="http://www.w3.org/1999/xlink">
	<desc>
			Created with Pixso.
	</desc>
	<defs/>
	<path id="Pinterest_Icon" d="M8.41 0C2.82 0 0 3.95 0 7.24C0 9.24 0.76 11.01 2.4 11.67C2.67 11.78 2.91 11.68 2.99 11.38C3.05 11.18 3.3 10.66 3.35 10.45C3.43 10.17 3.4 10.06 3.19 9.81C2.71 9.26 2.42 8.68 2.42 7.67C2.42 4.31 4.51 1.92 8.08 1.92C11.24 1.92 12.97 3.88 12.97 6.42C12.97 9.77 11.47 12.49 9.24 12.49C8.01 12.49 7.09 11.59 7.38 10.36C7.74 8.89 8.42 7.3 8.42 6.24C8.42 5.29 7.91 4.61 6.84 4.61C5.58 4.61 4.57 5.78 4.57 7.5C4.57 8.6 4.93 9.14 4.93 9.14C4.93 9.14 3.66 14.72 3.43 15.66C2.98 17.54 3.36 19.84 3.39 20.07C3.41 20.2 3.59 20.23 3.67 20.13C3.79 19.99 5.29 18.16 5.8 16.33C5.94 15.82 6.63 13.15 6.63 13.15C7.04 13.92 8.24 14.41 9.5 14.41C13.29 14.41 15.85 11.19 15.85 6.65C15.86 3.2 12.9 0 8.41 0Z" fill="#FFFFFF" fill-opacity="1.000000" fill-rule="nonzero"/>
</svg>
